Coordinates
version=1
nRows=17
nColumns=36
inDegrees=yes

Units are S.I. units (second, meters, Newtons, ...)
If the header above contains a line with 'inDegrees', this indicates whether rotational values are in degrees (yes) or radians (no).

endheader
time	pelvis_tilt	pelvis_list	pelvis_rotation	pelvis_tx	pelvis_ty	pelvis_tz	hip_flexion_r	hip_adduction_r	hip_rotation_r	knee_angle_r	knee_angle_r_beta	ankle_angle_r	subtalar_angle_r	mtp_angle_r	hip_flexion_l	hip_adduction_l	hip_rotation_l	knee_angle_l	knee_angle_l_beta	ankle_angle_l	subtalar_angle_l	mtp_angle_l	lumbar_extension	lumbar_bending	lumbar_rotation	arm_flex_r	arm_add_r	arm_rot_r	elbow_flex_r	pro_sup_r	arm_flex_l	arm_add_l	arm_rot_l	elbow_flex_l	pro_sup_l
     12.17000000	    -23.05567043	      3.06514966	     -1.90996065	     -0.35166849	      0.65602247	     -0.63252635	     95.29485428	    -12.26794716	      7.82564560	    104.39514975	      1.82203909	     35.32434861	     -3.22005755	     -7.49999987	     92.88079954	    -14.79571105	      2.11637010	    101.81437415	      1.77699605	     37.01343263	      5.15676743	     -7.49999987	    -24.94486623	     -3.02313948	     -2.88469496	      7.43052256	    -10.91884463	    -11.32418267	     72.52710651	    101.01695612	      6.94836704	    -16.20196137	    -10.20176081	     71.93764550	     81.93609061
     12.18000000	    -23.07836241	      3.16271156	     -1.96490965	     -0.35166480	      0.65600054	     -0.63249642	     95.38372878	    -12.25512312	      7.89667142	    104.40453600	      1.82220291	     35.24596687	     -3.25317701	     -7.49999987	     92.92985310	    -14.99422797	      1.91460372	    101.85052209	      1.77762696	     36.91414195	      5.35593069	     -7.49999987	    -24.96199247	     -3.11040886	     -2.84038907	      7.37658350	    -10.82973257	    -11.59626073	     72.17222848	    103.55940213	      7.08337017	    -16.19700833	    -10.12163751	     71.31464989	     83.98390160
     12.19000000	    -22.99259661	      3.20164499	     -2.10322838	     -0.35155743	      0.65613725	     -0.63238085	     95.30105484	    -12.12597024	      7.92139892	    104.37332196	      1.82165812	     35.18201167	     -3.39349565	     -7.49999987	     92.95032960	    -15.43239823	      1.69045563	    101.99087156	      1.78007652	     36.78096383	      5.72928588	     -7.49999987	    -25.08998498	     -3.15870121	     -2.71573880	      7.30447513	    -10.83045439	    -11.65740031	     72.08298699	    103.65500651	      7.18805596	    -16.13108998	    -10.00996847	     71.00818353	     84.14654812
     12.20000000	    -22.96376654	      3.19383960	     -2.19963653	     -0.35153799	      0.65634300	     -0.63224617	     95.24434566	    -12.01276901	      7.91057225	    104.34185193	      1.82110886	     35.21636364	     -3.35868903	     -7.49999987	     92.96746343	    -15.71815609	      1.57630530	    102.04150834	      1.78096029	     36.69394405	      5.95906549	     -7.49999987	    -25.16378123	     -3.18950003	     -2.57824396	      7.23356057	    -10.83405807	    -11.69352889	     71.93447877	    103.38788976	      7.31659003	    -16.05577621	     -9.88745616	     70.68192756	     84.33260692
     12.21000000	    -23.05615442	      3.16244516	     -2.18554765	     -0.35169216	      0.65657058	     -0.63215075	     95.28538595	    -11.99553306	      7.86015664	    104.26852161	      1.81982901	     35.10738148	     -3.51663474	     -7.49999987	     93.02324448	    -15.70584315	      1.58483784	    101.94007475	      1.77918994	     36.62722891	      5.75664058	     -7.49999987	    -25.12851388	     -3.14683136	     -2.60352002	      7.19536385	    -10.79326538	    -11.54457325	     71.95515089	    101.55739919	      7.33334936	    -16.04939639	     -9.80610659	     70.58099057	     82.94007851
     12.22000000	    -22.91979813	      3.11014279	     -2.21836464	     -0.35189043	      0.65723831	     -0.63207068	     95.11398073	    -12.01657027	      7.70850085	    104.18665759	      1.81840021	     34.95440781	     -3.85392602	     -7.49999987	     92.81603464	    -15.66021925	      1.64062773	    101.83166134	      1.77729777	     36.49842877	      5.09964251	     -7.49999987	    -25.39926208	     -3.11107712	     -2.59056996	      7.25125463	    -10.78945849	    -11.43050935	     72.00606502	    100.36864054	      7.43703985	    -16.01672613	     -9.74570365	     70.59504719	     81.99240881
     12.23000000	    -22.99849506	      3.11730860	     -2.16362275	     -0.35187264	      0.65733051	     -0.63221232	     95.23914072	    -12.21834633	      7.66337474	    104.22562800	      1.81908037	     35.11544949	     -3.10922162	     -7.49999987	     92.85822629	    -15.63324671	      1.64034346	    101.80163375	      1.77677369	     36.83224332	      5.94856891	     -7.49999987	    -25.29168522	     -3.08179967	     -2.69349553	      7.21938500	    -10.72557123	    -11.47825263	     71.71217224	    100.31266928	      7.42042600	    -16.02420696	     -9.69319432	     70.22242677	     81.81983033
     12.24000000	    -23.05648542	      3.16328620	     -2.09849422	     -0.35193900	      0.65758569	     -0.63244017	     95.31722994	    -12.35482330	      7.68340611	    104.19407626	      1.81852969	     35.05893075	     -3.02474654	     -7.49999987	     92.84716796	    -15.51436219	      1.58805715	    101.71164245	      1.77520305	     36.81568459	      5.85849803	     -7.49999987	    -25.25544970	     -3.08686093	     -2.81797032	      7.18982264	    -10.69081449	    -11.45171343	     71.61819154	    100.10286810	      7.41057070	    -15.98967649	     -9.63016306	     69.96370179	     81.77144345
     12.25000000	    -23.11080021	      3.20299545	     -2.04458035	     -0.35201350	      0.65793701	     -0.63252978	     95.33759535	    -12.39590251	      7.73158338	    104.12408306	      1.81730808	     35.01876311	     -3.09567622	     -7.49999987	     92.83132146	    -15.42804612	      1.53874512	    101.61172265	      1.77345912	     36.74982199	      5.76252722	     -7.49999987	    -25.23203975	     -3.10355671	     -2.92464388	      7.15890764	    -10.65467542	    -11.35688649	     71.61430902	     98.96449975	      7.38934647	    -15.95950568	     -9.54865845	     69.84443327	     80.98053196
     12.26000000	    -22.91393931	      3.17563165	     -2.03144068	     -0.35198817	      0.65865946	     -0.63249586	     95.04898768	    -12.39894185	      7.65829657	    104.05346373	      1.81607554	     34.87907804	     -3.69451258	     -7.49999987	     92.58622731	    -15.39413025	      1.49855957	    101.55139240	      1.77240616	     36.54512864	      4.85094213	     -7.49999987	    -25.52470228	     -3.08368652	     -2.95551891	      7.10804450	    -10.66785924	    -11.21857459	     71.70116461	     97.21500427	      7.41180538	    -15.93226580	     -9.49357578	     69.87720444	     79.85089279
     12.27000000	    -23.14919598	      3.23299940	     -2.00884759	     -0.35209365	      0.65869282	     -0.63225528	     95.27238777	    -12.38899795	      7.71676287	    103.99002668	      1.81496835	     35.00455502	     -3.21548506	     -7.49999987	     92.77631484	    -15.48769766	      1.41584265	    101.45429515	      1.77071149	     36.60592348	      5.83299139	     -7.49999987	    -25.24531496	     -3.17136546	     -3.06926440	      7.02866370	    -10.57177143	    -11.11972624	     71.46341855	     97.14073791	      7.32214457	    -15.99718833	     -9.50404419	     69.61366575	     79.65447984
     12.28000000	    -23.06053066	      3.16838699	     -2.01831548	     -0.35203700	      0.65931865	     -0.63208173	     95.07117158	    -12.38494808	      7.62475390	    103.91472704	      1.81365413	     35.09289245	     -3.05653622	     -7.49999987	     92.65499732	    -15.56884215	      1.44442221	    101.40493111	      1.76984993	     36.77021017	      6.12095028	     -7.49999987	    -25.37001136	     -3.14792594	     -3.11344148	      7.00113616	    -10.57236290	    -10.99316234	     71.24803723	     97.27429658	      7.27942475	    -15.99797404	     -9.51473658	     69.46242235	     79.59438087
     12.29000000	    -23.08648902	      3.13329367	     -1.98580785	     -0.35206525	      0.65983119	     -0.63210633	     95.01497185	    -12.41318298	      7.56740428	    103.81616820	      1.81193395	     35.08765903	     -2.98648247	     -7.49999987	     92.64174339	    -15.57216771	      1.42580695	    101.32361275	      1.76843065	     36.76589528	      6.18358455	     -7.49999987	    -25.35907034	     -3.11027561	     -3.16909683	      6.96432350	    -10.57964995	    -10.92337847	     71.12148155	     97.81338988	      7.24792101	    -15.96765089	     -9.49744947	     69.26156861	     79.71148186
     12.30000000	    -23.12653256	      3.11881583	     -1.94181752	     -0.35202776	      0.66026529	     -0.63217661	     94.98777989	    -12.44942077	      7.54978887	    103.75927392	      1.81094096	     35.14143923	     -2.97144122	     -7.49999987	     92.63004931	    -15.53591511	      1.40598275	    101.24741377	      1.76710073	     36.79841470	      6.19709839	     -7.49999987	    -25.31939371	     -3.09873270	     -3.24606826	      6.86111736	    -10.55003628	    -10.86244075	     71.11773197	     97.68485717	      7.18109064	    -15.91304226	     -9.45647251	     69.10321342	     79.48694731
     12.31000000	    -23.12186862	      3.09866597	     -1.90795793	     -0.35199714	      0.66088895	     -0.63221541	     94.89511842	    -12.50270347	      7.48241255	    103.66329961	      1.80926589	     35.07482197	     -3.08533810	     -7.49999987	     92.56503940	    -15.50696232	      1.38429636	    101.14112104	      1.76524557	     36.63043711	      6.04422974	     -7.49999987	    -25.34901935	     -3.08481824	     -3.33572764	      6.81121372	    -10.46217378	    -11.12273326	     70.70061856	    102.89067090	      7.13227379	    -15.83646641	     -9.63654783	     68.58858922	     82.54853821
     12.32000000	    -23.13880357	      3.07517362	     -1.88418982	     -0.35195726	      0.66152446	     -0.63216381	     94.81438759	    -12.51307102	      7.42477327	    103.55093165	      1.80730470	     35.02029557	     -3.17990175	     -7.49999987	     92.52006018	    -15.50932857	      1.36293295	    101.03400818	      1.76337610	     36.59280677	      6.02346763	     -7.49999987	    -25.32953439	     -3.08416995	     -3.36214567	      6.70559396	    -10.37502757	    -11.20258524	     70.68453018	    102.98945968	      7.10229476	    -15.79684807	     -9.66935388	     68.36823672	     82.48793397
     12.33000000	    -23.13625055	      3.01764387	     -1.89159150	     -0.35188942	      0.66218867	     -0.63201210	     94.69446095	    -12.49076149	      7.34101762	    103.44783874	      1.80550539	     35.06781158	     -3.07524062	     -7.49999987	     92.45820773	    -15.57774308	      1.38345810	    100.94508128	      1.76182403	     36.76421891	      6.31141614	     -7.49999987	    -25.34229110	     -3.06373366	     -3.34707668	      6.60379025	    -10.41466424	    -10.79039905	     71.12551481	     96.65910996	      7.06506154	    -15.78862178	     -9.53432925	     68.63287426	     78.66279061
